<svg xmlns="http://www.w3.org/2000/svg" viewBox="0 0 470.68 754.87"><defs><style>.cls-1{fill:#fff;}.cls-2{fill:#be1e2d;}.cls-3{fill:#991320;}</style></defs><title>overkill_logo_v2_1</title><g id="Calque_2" data-name="Calque 2"><g id="Calque_1-2" data-name="Calque 1"><path class="cls-1" d="M470.68,504.81c0,150-235.34,250.06-235.34,250.06S0,654.8,0,504.81V0H470.68Z"/><polygon class="cls-2" points="244.87 195.75 224.87 195.75 228.87 52.51 240.87 52.51 244.87 195.75"/><path class="cls-2" d="M280.07,560.09H189.68c-28,0-50.93-72-50.93-100V241.83a51.08,51.08,0,0,1,50.93-50.94h90.39A51.08,51.08,0,0,1,331,241.83v218.3C331,488.14,308.08,560.09,280.07,560.09Z"/><rect class="cls-2" x="182.41" y="118.13" width="104.94" height="101.87" rx="50.94"/><polygon class="cls-2" points="234.87 216.17 106.58 150.84 106.58 65.28 234.87 130.6 234.87 216.17"/><polygon class="cls-2" points="234.87 216.17 363.17 150.84 363.17 65.28 234.87 130.6 234.87 216.17"/><path class="cls-3" d="M304.08,542.84h0c-.6-9.91-77,8.48-114.78-31.78-23.23-24.73-21.68-65.33-17.62-145.53,4.51-89,8.55-164.47-4.6-169.3a51.07,51.07,0,0,0-28.33,45.6v218.3c0,28,22.92,100,50.93,100h90.39C288.74,560.09,296.92,553.19,304.08,542.84Z"/><path class="cls-3" d="M185.23,190.89h0c1.69-5.31-34.23-14.55-64.1-47.49-10.87-12-9-25.64-10-38.29-1.41-19.68-.66-36.67-3.84-39.45l-.75-.38v85.56Z"/><path class="cls-3" d="M216.23,121.11l-1.65,69.78c0,4.32-14.31,4.9-13.79,0C203.09,169.06,205.65,157.33,216.23,121.11Z"/><path d="M211.33,638.22a7.25,7.25,0,0,0-3.53,2c-.47.43-1,.83-1.45,1.24a1.41,1.41,0,0,1-1.95,0,1.28,1.28,0,0,1,.09-1.94c1.07-1,2.16-1.89,3.29-2.77a5.26,5.26,0,0,1,1.34-.6c1.33-.52,2.68-1,4-1.53a1.17,1.17,0,0,0,.52-.44,50.12,50.12,0,0,1,6.78-8.92,3,3,0,0,0-.33-.05c-1.68,0-3.35.05-5,0a2.17,2.17,0,0,1-1-.27c-1.42-.82-2.77-1.77-4.24-2.49a34.6,34.6,0,0,0-3.92-1.45c-.3-.11-.61-.18-.9-.31a1.36,1.36,0,0,1,1-2.53c1.39.43,2.82.8,4.16,1.36a29.21,29.21,0,0,1,3.07,1.75c.48.28,1,.57,1.42.87a2.18,2.18,0,0,0,1.34.37c2.34-.06,4.68-.08,7-.1a1.74,1.74,0,0,0,1.09-.38c.55-.42,1.14-.8,1.76-1.22L224,618.57c-1.29-1.58-2.63-3.11-3.84-4.75a9.49,9.49,0,0,1-1-2.25l-2.36-6.09a1.62,1.62,0,0,0-.35-.44l-2.24-2a1.38,1.38,0,0,1-.19-1.92,1.34,1.34,0,0,1,2-.14c.94.82,1.86,1.65,2.77,2.5a2,2,0,0,1,.48.74c.92,2.37,1.83,4.74,2.71,7.13a10.3,10.3,0,0,0,1.88,2.73c1.15,1.46,2.35,2.88,3.53,4.32l.16.21,1.51-1.62a16.48,16.48,0,0,1-1.59-1.47,3.75,3.75,0,0,1,.16-5.23,8.8,8.8,0,0,1,5.09-2.5l.87-.14v-4.22c-.5,0-1-.33-1.47-.41a1.25,1.25,0,0,1-1.06-1.37,1.3,1.3,0,0,1,1.27-1.25q2.64,0,5.28,0a1.33,1.33,0,0,1,.17,2.64,12.63,12.63,0,0,1-1.44.37v4.24c.45.08.92.14,1.38.24a8.2,8.2,0,0,1,4.69,2.55A3.77,3.77,0,0,1,242,616c-.4.36-.83.67-1.19,1l1.45,1.54,3.18-3.89a16.36,16.36,0,0,1,1.06-1.28c1.07-1.06,1.38-2.49,1.92-3.8.73-1.81,1.39-3.65,2.12-5.46a2.61,2.61,0,0,1,.66-.86c.8-.73,1.61-1.44,2.42-2.16a1.36,1.36,0,0,1,2.07.08,1.38,1.38,0,0,1-.28,2c-.74.65-1.48,1.31-2.2,2a1.37,1.37,0,0,0-.35.5c-.77,1.94-1.54,3.9-2.3,5.85a11,11,0,0,0-.44,1.26,7.66,7.66,0,0,1-1.79,2.66c-1.37,1.74-2.79,3.44-4.2,5.14-.25.3-.16.46.11.64.48.34.95.7,1.45,1a1.43,1.43,0,0,0,.7.21c2.6,0,5.19.09,7.79.12a1.21,1.21,0,0,0,.58-.16c1.35-.8,2.66-1.7,4.06-2.4a32.52,32.52,0,0,1,3.61-1.34l1.17-.39a1.38,1.38,0,0,1,1.85.78,1.34,1.34,0,0,1-.93,1.8c-.92.31-1.84.63-2.77.87a17.39,17.39,0,0,0-4.08,2.12c-.72.4-1.41.86-2.14,1.26a1.92,1.92,0,0,1-.86.17c-1.74,0-3.48,0-5.21-.05-.09,0-.18,0-.35,0l1,1.12a53,53,0,0,1,5.67,7.66,1.5,1.5,0,0,0,.67.55c1.61.64,3.25,1.19,4.84,1.89a9.59,9.59,0,0,1,1.92,1.36c.63.48,1.23,1,1.84,1.52a1.38,1.38,0,0,1,.32,2.05,1.41,1.41,0,0,1-2.08,0l-2.55-2.16a1.82,1.82,0,0,0-.47-.31L258.1,638c.16.37.28.66.42,1a41.89,41.89,0,0,1,3.32,11.06,34.91,34.91,0,0,1,.36,8.42,14.52,14.52,0,0,1-1.32,5.33,3.07,3.07,0,0,1-3.4,1.91,11.57,11.57,0,0,1-2.31-.54,21.88,21.88,0,0,1-5.23-2.83,40.35,40.35,0,0,1-5.87-5.1c-.33.47-.63.93-1,1.37a12.31,12.31,0,0,1-5,4.24,7.82,7.82,0,0,1-7.4-.57,14.6,14.6,0,0,1-4.69-4.82l-.32-.49c-.32.35-.61.68-.92,1a34,34,0,0,1-8.3,6.29,12.19,12.19,0,0,1-4.4,1.48,3.15,3.15,0,0,1-3.35-1.85,13.21,13.21,0,0,1-1.27-4.56,32,32,0,0,1,0-7.19,40,40,0,0,1,2.32-10C210.26,640.82,210.81,639.53,211.33,638.22Zm12.07-12-.07-.08L222,627.55a49.16,49.16,0,0,0-7.73,11.13,38.07,38.07,0,0,0-3.9,12.15,31.74,31.74,0,0,0-.18,7.91,11,11,0,0,0,.88,3.69c.32.65.48.77,1.17.54a22,22,0,0,0,3.27-1.29,33,33,0,0,0,8.64-6.91.62.62,0,0,0,.12-.79c-.35-.89-.71-1.77-1-2.68a39.78,39.78,0,0,1-1.75-9.68,41.84,41.84,0,0,1,.95-11.76C222.7,628.63,223.07,627.41,223.4,626.19Zm23.36.42-.12.07a1.87,1.87,0,0,1,.07.22,36.69,36.69,0,0,1,1.53,7.16,43.14,43.14,0,0,1-.07,10.53,36.56,36.56,0,0,1-2.28,9c-.49,1.24-.47,1.22.49,2.18a36.47,36.47,0,0,0,5.8,4.79,15.64,15.64,0,0,0,5.19,2.44c.73.15.92.06,1.22-.62a13.47,13.47,0,0,0,.93-4.47,33.82,33.82,0,0,0-.75-9.67,39.1,39.1,0,0,0-4.39-11.33,51.08,51.08,0,0,0-4.69-7C248.76,628.79,247.74,627.71,246.76,626.61Z"/><path d="M223.32,626.19c-.33,1.23-.7,2.44-1,3.67a41.9,41.9,0,0,0-1,11.76,39.86,39.86,0,0,0,1.75,9.69c.29.9.65,1.79,1,2.67a.62.62,0,0,1-.12.79,32.77,32.77,0,0,1-8.64,6.91,21,21,0,0,1-3.27,1.29c-.69.23-.85.12-1.17-.54a10.89,10.89,0,0,1-.88-3.69,31.65,31.65,0,0,1,.18-7.9,37.91,37.91,0,0,1,3.9-12.15,49.22,49.22,0,0,1,7.73-11.14l1.38-1.43Z"/><path d="M246.68,626.61c1,1.11,2,2.18,2.93,3.33a50.37,50.37,0,0,1,4.69,6.95,39.21,39.21,0,0,1,4.39,11.33,33.89,33.89,0,0,1,.75,9.68,13.41,13.41,0,0,1-.93,4.46c-.3.69-.49.78-1.22.62a15.62,15.62,0,0,1-5.19-2.43,36.53,36.53,0,0,1-5.8-4.8c-1-1-1-.94-.49-2.17a36.79,36.79,0,0,0,2.28-9,43.14,43.14,0,0,0,.07-10.53,36.79,36.79,0,0,0-1.53-7.17l-.06-.22Z"/><path class="cls-3" d="M244.07,657.24s-3.62,6.27-9.2,6.27S225.7,657,225.7,657a84.14,84.14,0,0,0,8.36-40l1.76,0A85.23,85.23,0,0,0,244.07,657.24Z"/><path class="cls-1" d="M199.77,367h3.41v11.19H184.56L174.32,357l-3.14,2.59V367h3.28v11.19H148.67V367h3.41v-30.7h-3.41V325.08h25.79v11.19h-3.28v9l10.58-9h-4.3V325.08h25.38v11.19h-3.41L188,345.68Z"/><path class="cls-1" d="M205.64,378.16V367h3.41v-30.7h-3.41V325.08h25.92v11.19h-3.41V367h3.41v11.19Z"/><path class="cls-1" d="M234.29,378.16V367h3.41v-30.7h-3.41V325.08h28.8v11.19h-6.28V367H263v-6.28h13.58v17.47Z"/><path class="cls-1" d="M278.85,378.16V367h3.41v-30.7h-3.41V325.08h28.79v11.19h-6.28V367h6.14v-6.28h13.58v17.47Z"/><path class="cls-1" d="M155,319.18q-5.62-5.42-5.62-17.34T155,284.51q5.61-5.43,16-5.42t15.95,5.42q5.63,5.42,5.62,17.33t-5.62,17.34q-5.62,5.42-15.95,5.42T155,319.18Zm18.83-5.65a4.46,4.46,0,0,0,1-3.16V293.32a4.46,4.46,0,0,0-1-3.16,4.58,4.58,0,0,0-5.76,0,4.46,4.46,0,0,0-1,3.16v17.05a4.46,4.46,0,0,0,1,3.19,3.84,3.84,0,0,0,2.88,1A3.77,3.77,0,0,0,173.81,313.53Z"/><path class="cls-1" d="M217,279.88h18.86v9.26h-2.26L223.5,323.81H205.21L195.1,289.14h-2.26v-9.26h21.68v9.26h-2.93l3.89,18.92h.57l3.89-18.92H217Z"/><path class="cls-1" d="M237.67,323.81v-9.26h2.83V289.14h-2.83v-9.26h38.12v17.05H263.14v-7.79h-6.83v8.92h5v6.44h-5v10.05h6.83v-8.92h12.65v18.18Z"/><path class="cls-1" d="M277.94,314.55h2.82V289.14h-2.82v-9.26h25.91q7.29,0,11.13,3t3.84,9.71a13.3,13.3,0,0,1-1.53,6.55A8.09,8.09,0,0,1,313,303l.05.57q5.43.84,5.42,6.66v4.35h2.66v9.26h-17.9V310.54a6.83,6.83,0,0,0-.65-3.33,3.33,3.33,0,0,0-2-1.53,15.34,15.34,0,0,0-3.93-.39v9.26h3.73v9.26H277.94Zm21.68-16.15a3.2,3.2,0,0,0,2.46-.88,3.91,3.91,0,0,0,.82-2.73v-2a4,4,0,0,0-.82-2.74,3.24,3.24,0,0,0-2.46-.87h-3.05v9.26Z"/></g></g></svg>